<?xml version="1.0" encoding="UTF-8" standalone="no"?>
<!DOCTYPE svg PUBLIC "-//W3C//DTD SVG 20010904//EN"
              "http://www.w3.org/TR/2001/REC-SVG-20010904/DTD/svg10.dtd">

<svg xmlns="http://www.w3.org/2000/svg"
     viewBox="0 0 3000 630">
  <path id="Mountains"
        fill="#BEF6FA" stroke="#bed8fa" stroke-width="3"
        d="M 2474.00,232.00
           C 2464.53,219.73 2461.55,205.10 2450.00,204.11
             2440.13,203.26 2436.60,209.98 2431.58,217.00
             2431.58,217.00 2400.86,260.00 2400.86,260.00
             2400.86,260.00 2311.58,385.00 2311.58,385.00
             2311.58,385.00 2282.29,426.00 2282.29,426.00
             2277.62,432.56 2269.30,443.27 2266.00,450.00
             2266.00,450.00 2264.00,450.00 2264.00,450.00
             2264.00,450.00 2238.06,406.00 2238.06,406.00
             2238.06,406.00 2216.00,369.00 2216.00,369.00
             2210.74,360.92 2205.87,346.04 2195.00,345.11
             2186.07,344.34 2182.66,349.48 2178.00,356.00
             2178.00,356.00 2158.00,383.00 2158.00,383.00
             2158.00,383.00 2141.42,355.00 2141.42,355.00
             2141.42,355.00 2126.45,330.00 2126.45,330.00
             2126.45,330.00 2079.06,251.00 2079.06,251.00
             2079.06,251.00 2061.99,222.00 2061.99,222.00
             2058.52,216.08 2055.56,210.76 2048.00,210.11
             2037.78,209.23 2034.03,216.78 2028.86,224.00
             2028.86,224.00 1994.00,274.00 1994.00,274.00
             1984.53,261.73 1981.55,247.10 1970.00,246.11
             1960.57,245.30 1957.14,251.21 1952.29,258.00
             1952.29,258.00 1932.29,286.00 1932.29,286.00
             1932.29,286.00 1867.29,377.00 1867.29,377.00
             1867.29,377.00 1836.00,422.00 1836.00,422.00
             1836.00,422.00 1806.77,374.00 1806.77,374.00
             1802.21,365.66 1798.23,356.14 1787.00,357.11
             1778.62,357.83 1774.54,365.86 1770.14,372.00
             1770.14,372.00 1736.00,421.00 1736.00,421.00
             1736.00,421.00 1719.82,396.39 1719.82,396.39
             1714.64,391.83 1706.37,391.90 1701.17,396.39
             1698.97,398.30 1696.72,401.59 1695.00,404.00
             1692.32,407.75 1690.70,409.62 1689.00,414.00
             1689.00,414.00 1660.55,367.00 1660.55,367.00
             1660.55,367.00 1628.45,314.00 1628.45,314.00
             1628.45,314.00 1606.32,277.00 1606.32,277.00
             1606.32,277.00 1587.99,246.00 1587.99,246.00
             1584.52,240.08 1581.56,234.76 1574.00,234.11
             1563.78,233.23 1560.03,240.78 1554.86,248.00
             1554.86,248.00 1520.00,298.00 1520.00,298.00
             1509.32,284.16 1507.32,268.88 1493.00,270.11
             1485.47,270.75 1482.27,276.42 1478.29,282.00
             1478.29,282.00 1452.00,320.00 1452.00,320.00
             1452.00,320.00 1427.45,279.00 1427.45,279.00
             1427.45,279.00 1405.34,242.00 1405.34,242.00
             1399.43,232.85 1395.36,217.96 1382.00,219.11
             1373.62,219.83 1369.54,227.86 1365.14,234.00
             1365.14,234.00 1331.00,283.00 1331.00,283.00
             1320.32,269.16 1318.32,253.88 1304.00,255.11
             1295.06,255.88 1289.77,266.30 1285.00,273.00
             1285.00,273.00 1259.29,309.00 1259.29,309.00
             1255.04,314.96 1248.16,323.85 1245.00,330.00
             1245.00,330.00 1243.00,330.00 1243.00,330.00
             1243.00,330.00 1235.45,317.00 1235.45,317.00
             1235.45,317.00 1220.00,291.00 1220.00,291.00
             1220.00,291.00 1218.00,291.00 1218.00,291.00
             1218.00,291.00 1203.17,297.39 1203.17,297.39
             1203.17,297.39 1186.29,320.00 1186.29,320.00
             1186.29,320.00 1160.00,358.00 1160.00,358.00
             1150.53,345.73 1147.55,331.10 1136.00,330.11
             1132.87,329.84 1129.74,330.32 1127.04,332.01
             1122.41,334.89 1112.72,349.78 1109.00,355.00
             1109.00,355.00 1066.86,414.00 1066.86,414.00
             1061.89,420.93 1047.75,439.50 1045.00,446.00
             1045.00,446.00 1043.00,446.00 1043.00,446.00
             1043.00,446.00 1025.45,416.00 1025.45,416.00
             1025.45,416.00 1001.45,376.00 1001.45,376.00
             1001.45,376.00 992.00,360.00 992.00,360.00
             985.90,350.63 981.46,334.95 968.00,336.11
             965.36,336.33 963.24,337.06 961.09,338.65
             957.01,341.67 947.06,356.14 945.00,361.00
             945.00,361.00 943.00,361.00 943.00,361.00
             943.00,361.00 909.06,304.00 909.06,304.00
             909.06,304.00 861.68,225.00 861.68,225.00
             861.68,225.00 843.99,195.00 843.99,195.00
             840.52,189.08 837.56,183.76 830.00,183.11
             819.78,182.23 816.03,189.78 810.86,197.00
             810.86,197.00 776.00,247.00 776.00,247.00
             766.53,234.73 763.55,220.10 752.00,219.11
             742.57,218.30 739.14,224.21 734.29,231.00
             734.29,231.00 712.86,261.00 712.86,261.00
             712.86,261.00 615.00,398.00 615.00,398.00
             610.34,388.52 600.42,382.40 591.17,390.39
             587.98,393.15 577.48,408.52 574.29,413.00
             574.29,413.00 548.00,451.00 548.00,451.00
             538.53,438.73 535.55,424.10 524.00,423.11
             514.13,422.26 510.60,428.98 505.58,436.00
             505.58,436.00 494.00,453.00 494.00,453.00
             494.00,453.00 460.58,398.00 460.58,398.00
             460.58,398.00 424.55,338.00 424.55,338.00
             424.55,338.00 389.13,279.00 389.13,279.00
             389.13,279.00 364.57,238.00 364.57,238.00
             360.30,230.55 356.77,224.27 347.00,225.11
             338.62,225.83 334.54,233.86 330.14,240.00
             330.14,240.00 296.00,289.00 296.00,289.00
             285.32,275.16 283.32,259.88 269.00,261.11
             260.06,261.88 254.77,272.30 250.00,279.00
             250.00,279.00 224.29,315.00 224.29,315.00
             220.04,320.96 213.16,329.85 210.00,336.00
             210.00,336.00 208.00,336.00 208.00,336.00
             208.00,336.00 189.06,304.00 189.06,304.00
             189.06,304.00 165.06,264.00 165.06,264.00
             159.56,255.08 155.88,242.00 143.00,243.11
             134.62,243.83 130.54,251.86 126.14,258.00
             126.14,258.00 92.00,307.00 92.00,307.00
             81.32,293.16 79.32,277.88 65.00,279.11
             57.83,279.72 54.82,284.65 51.00,290.00
             51.00,290.00 37.42,309.00 37.42,309.00
             37.42,309.00 11.00,346.00 11.00,346.00
             4.83,354.67 0.02,358.05 0.00,369.00
             0.00,369.00 0.00,407.00 0.00,407.00
             0.00,407.00 18.42,382.00 18.42,382.00
             18.42,382.00 66.00,316.00 66.00,316.00
             66.00,316.00 73.48,330.58 73.48,330.58
             73.48,330.58 69.00,338.00 69.00,338.00
             69.00,338.00 57.58,354.00 57.58,354.00
             57.58,354.00 15.42,413.00 15.42,413.00
             15.42,413.00 0.56,435.00 0.56,435.00
             0.56,435.00 0.00,442.00 0.00,442.00
             0.00,442.00 0.00,480.00 0.00,480.00
             0.00,480.00 22.14,450.00 22.14,450.00
             22.14,450.00 64.29,391.00 64.29,391.00
             64.29,391.00 90.00,356.00 90.00,356.00
             90.00,356.00 98.13,370.00 98.13,370.00
             98.13,370.00 124.87,415.00 124.87,415.00
             124.87,415.00 134.13,430.00 134.13,430.00
             135.09,431.71 136.78,434.57 136.56,436.58
             136.30,438.90 130.24,446.68 128.58,449.00
             128.58,449.00 107.14,479.00 107.14,479.00
             107.14,479.00 32.14,584.00 32.14,584.00
             32.14,584.00 12.86,611.00 12.86,611.00
             8.37,617.27 3.84,622.09 3.00,630.00
             3.00,630.00 24.00,630.00 24.00,630.00
             35.49,629.98 35.92,625.10 42.42,616.00
             42.42,616.00 61.00,590.00 61.00,590.00
             61.00,590.00 122.42,504.00 122.42,504.00
             122.42,504.00 153.00,461.00 153.00,461.00
             153.00,461.00 160.17,474.00 160.17,474.00
             161.11,477.73 157.88,481.17 155.86,484.00
             155.86,484.00 139.42,507.00 139.42,507.00
             139.42,507.00 97.29,566.00 97.29,566.00
             91.78,573.74 81.99,584.63 81.00,594.00
             81.00,594.00 102.00,594.00 102.00,594.00
             104.01,594.00 107.12,594.12 108.96,593.40
             113.10,591.80 119.74,580.97 122.58,577.00
             122.58,577.00 157.58,528.00 157.58,528.00
             157.58,528.00 247.58,402.00 247.58,402.00
             247.58,402.00 294.00,338.00 294.00,338.00
             294.00,338.00 313.55,371.00 313.55,371.00
             313.55,371.00 341.43,418.00 341.43,418.00
             341.43,418.00 353.43,438.00 353.43,438.00
             353.43,438.00 357.46,447.00 357.46,447.00
             357.46,447.00 353.14,455.00 353.14,455.00
             353.14,455.00 344.00,469.00 344.00,469.00
             333.32,455.16 331.32,439.88 317.00,441.11
             314.36,441.33 312.24,442.06 310.09,443.65
             306.19,446.54 295.79,462.09 292.29,467.00
             292.29,467.00 263.71,507.00 263.71,507.00
             257.47,515.76 252.02,519.94 252.00,531.00
             252.00,531.00 252.00,549.00 252.00,549.00
             251.98,560.30 247.68,563.03 241.29,572.00
             241.29,572.00 215.00,610.00 215.00,610.00
             204.32,596.16 202.32,580.88 188.00,582.11
             180.47,582.75 177.27,588.42 173.29,594.00
             173.29,594.00 148.00,630.00 148.00,630.00
             148.00,630.00 173.00,630.00 173.00,630.00
             173.00,630.00 180.54,629.01 180.54,629.01
             180.54,629.01 189.00,619.00 189.00,619.00
             189.00,619.00 195.61,629.01 195.61,629.01
             195.61,629.01 202.00,630.00 202.00,630.00
             202.00,630.00 227.00,630.00 227.00,630.00
             227.00,630.00 233.54,628.40 233.54,628.40
             233.54,628.40 252.00,604.00 252.00,604.00
             252.00,604.00 252.00,630.00 252.00,630.00
             252.00,630.00 260.83,628.98 260.83,628.98
             260.83,628.98 267.71,621.00 267.71,621.00
             267.71,621.00 279.00,604.00 279.00,604.00
             279.00,604.00 288.23,619.00 288.23,619.00
             288.23,619.00 295.32,628.98 295.32,628.98
             295.32,628.98 303.00,630.00 303.00,630.00
             303.00,630.00 325.00,630.00 325.00,630.00
             322.61,623.49 310.01,602.90 305.68,596.00
             303.98,593.28 297.64,583.84 297.45,581.28
             297.23,578.32 306.27,567.01 308.42,564.00
             308.42,564.00 342.00,518.00 342.00,518.00
             342.00,518.00 350.13,532.00 350.13,532.00
             350.13,532.00 376.87,577.00 376.87,577.00
             376.87,577.00 386.13,592.00 386.13,592.00
             386.13,592.00 388.56,598.58 388.56,598.58
             388.56,598.58 382.71,608.00 382.71,608.00
             382.71,608.00 368.00,630.00 368.00,630.00
             368.00,630.00 393.00,630.00 393.00,630.00
             393.00,630.00 399.82,628.98 399.82,628.98
             399.82,628.98 405.00,623.00 405.00,623.00
             406.09,625.19 407.14,627.65 409.33,628.98
             411.65,630.39 417.19,630.00 420.00,630.00
             420.00,630.00 444.00,630.00 444.00,630.00
             446.50,629.99 449.67,630.20 451.91,628.98
             455.27,627.15 459.24,620.43 461.00,617.00
             461.00,617.00 469.21,628.98 469.21,628.98
             469.21,628.98 477.00,630.00 477.00,630.00
             477.00,630.00 499.00,630.00 499.00,630.00
             499.00,630.00 484.57,604.00 484.57,604.00
             484.57,604.00 479.67,594.00 479.67,594.00
             479.67,594.00 482.00,587.00 482.00,587.00
             487.73,588.63 499.62,588.11 506.00,588.00
             508.04,587.96 510.05,587.99 511.91,586.98
             515.66,584.94 525.87,569.34 528.00,565.00
             528.00,565.00 530.00,565.00 530.00,565.00
             530.00,565.00 540.99,584.00 540.99,584.00
             540.99,584.00 547.21,592.98 547.21,592.98
             547.21,592.98 554.00,594.00 554.00,594.00
             554.00,594.00 577.00,594.00 577.00,594.00
             577.00,594.00 567.68,577.00 567.68,577.00
             567.68,577.00 556.34,558.00 556.34,558.00
             556.34,558.00 547.54,541.00 547.54,541.00
             547.54,541.00 558.00,523.00 558.00,523.00
             558.00,523.00 560.00,523.00 560.00,523.00
             560.00,523.00 566.63,537.00 566.63,537.00
             566.63,537.00 561.00,552.00 561.00,552.00
             561.00,552.00 570.00,552.00 570.00,552.00
             570.00,552.00 575.79,552.60 575.79,552.60
             575.79,552.60 586.42,568.00 586.42,568.00
             586.42,568.00 606.60,602.00 606.60,602.00
             606.60,602.00 619.00,623.00 619.00,623.00
             621.19,621.44 626.64,616.20 628.83,616.20
             632.05,616.20 637.59,625.36 640.29,627.69
             643.99,630.87 649.43,630.00 654.00,630.00
             654.00,630.00 613.86,562.00 613.86,562.00
             613.86,562.00 604.32,546.00 604.32,546.00
             604.32,546.00 601.32,538.00 601.32,538.00
             601.32,538.00 611.14,523.00 611.14,523.00
             611.14,523.00 636.00,487.00 636.00,487.00
             636.00,487.00 638.00,487.00 638.00,487.00
             638.00,487.00 655.55,517.00 655.55,517.00
             655.55,517.00 679.55,557.00 679.55,557.00
             679.55,557.00 689.66,574.00 689.66,574.00
             689.66,574.00 705.32,600.00 705.32,600.00
             705.32,600.00 711.00,612.00 711.00,612.00
             711.00,612.00 700.00,630.00 700.00,630.00
             700.00,630.00 777.00,630.00 777.00,630.00
             777.00,630.00 784.70,628.98 784.70,628.98
             784.70,628.98 792.86,619.00 792.86,619.00
             792.86,619.00 808.58,597.00 808.58,597.00
             808.58,597.00 860.71,524.00 860.71,524.00
             860.71,524.00 887.00,486.00 887.00,486.00
             887.00,486.00 909.01,522.00 909.01,522.00
             909.01,522.00 931.30,559.00 931.30,559.00
             931.30,559.00 941.19,575.00 941.19,575.00
             941.19,575.00 944.66,583.00 944.66,583.00
             944.66,583.00 936.14,597.00 936.14,597.00
             936.14,597.00 913.00,630.00 913.00,630.00
             913.00,630.00 939.00,630.00 939.00,630.00
             941.72,629.98 944.08,630.24 946.33,628.43
             948.04,627.05 952.07,621.11 953.58,619.00
             953.58,619.00 967.86,599.00 967.86,599.00
             971.25,594.27 973.20,589.79 979.00,588.00
             979.18,580.63 983.67,577.80 987.00,571.00
             987.00,571.00 995.63,585.58 995.63,585.58
             995.63,585.58 987.71,598.00 987.71,598.00
             987.71,598.00 966.00,630.00 966.00,630.00
             966.00,630.00 991.00,630.00 991.00,630.00
             991.00,630.00 997.70,628.98 997.70,628.98
             997.70,628.98 1012.00,611.00 1012.00,611.00
             1012.00,611.00 1023.61,629.01 1023.61,629.01
             1023.61,629.01 1031.00,630.00 1031.00,630.00
             1031.00,630.00 1054.00,630.00 1054.00,630.00
             1054.00,630.00 1051.00,624.00 1051.00,624.00
             1051.00,624.00 1066.91,622.98 1066.91,622.98
             1066.91,622.98 1076.00,612.00 1076.00,612.00
             1076.00,612.00 1095.00,584.00 1095.00,584.00
             1095.00,584.00 1109.05,607.00 1109.05,607.00
             1112.20,612.03 1116.56,618.01 1117.00,624.00
             1117.00,624.00 1124.18,629.40 1124.18,629.40
             1124.18,629.40 1134.00,630.00 1134.00,630.00
             1134.00,630.00 1153.00,630.00 1153.00,630.00
             1153.00,630.00 1129.00,588.00 1129.00,588.00
             1129.00,588.00 1137.00,588.00 1137.00,588.00
             1137.00,588.00 1144.91,586.98 1144.91,586.98
             1144.91,586.98 1159.71,568.00 1159.71,568.00
             1159.71,568.00 1193.29,521.00 1193.29,521.00
             1193.29,521.00 1210.00,496.00 1210.00,496.00
             1210.00,496.00 1212.00,496.00 1212.00,496.00
             1212.00,496.00 1226.19,521.00 1226.19,521.00
             1226.19,521.00 1248.19,558.00 1248.19,558.00
             1248.19,558.00 1257.68,574.00 1257.68,574.00
             1257.68,574.00 1261.95,583.00 1261.95,583.00
             1261.95,583.00 1250.00,603.00 1250.00,603.00
             1250.00,603.00 1248.00,603.00 1248.00,603.00
             1246.32,598.61 1243.47,594.15 1241.14,590.00
             1236.82,582.32 1233.11,575.24 1223.00,576.11
             1215.47,576.75 1212.27,582.42 1208.29,588.00
             1208.29,588.00 1183.00,624.00 1183.00,624.00
             1183.00,624.00 1208.00,624.00 1208.00,624.00
             1208.00,624.00 1215.54,623.01 1215.54,623.01
             1215.54,623.01 1224.00,613.00 1224.00,613.00
             1226.33,617.79 1228.37,623.04 1234.00,624.00
             1234.00,624.00 1230.00,630.00 1230.00,630.00
             1230.00,630.00 1251.00,630.00 1251.00,630.00
             1253.53,630.00 1259.74,630.26 1261.82,629.40
             1266.09,627.64 1275.74,613.39 1278.00,609.00
             1278.00,609.00 1291.63,629.01 1291.63,629.01
             1291.63,629.01 1299.00,630.00 1299.00,630.00
             1299.00,630.00 1322.00,630.00 1322.00,630.00
             1322.00,630.00 1306.00,603.00 1306.00,603.00
             1306.00,603.00 1327.00,603.00 1327.00,603.00
             1327.00,603.00 1333.91,601.98 1333.91,601.98
             1333.91,601.98 1342.29,592.00 1342.29,592.00
             1342.29,592.00 1357.00,572.00 1357.00,572.00
             1358.95,578.12 1363.28,583.49 1366.55,589.00
             1366.55,589.00 1383.01,617.00 1383.01,617.00
             1388.22,625.89 1388.65,629.98 1399.00,630.00
             1399.00,630.00 1422.00,630.00 1422.00,630.00
             1422.00,630.00 1387.55,572.00 1387.55,572.00
             1387.55,572.00 1377.23,555.00 1377.23,555.00
             1377.23,555.00 1374.37,548.42 1374.37,548.42
             1374.37,548.42 1384.42,533.00 1384.42,533.00
             1384.42,533.00 1411.58,495.00 1411.58,495.00
             1411.58,495.00 1481.58,397.00 1481.58,397.00
             1481.58,397.00 1518.00,347.00 1518.00,347.00
             1518.00,347.00 1537.55,380.00 1537.55,380.00
             1537.55,380.00 1567.20,430.00 1567.20,430.00
             1567.20,430.00 1591.31,470.00 1591.31,470.00
             1591.31,470.00 1609.42,500.00 1609.42,500.00
             1611.33,503.07 1615.85,509.43 1615.67,513.00
             1615.51,516.03 1611.79,520.49 1610.00,523.00
             1610.00,523.00 1593.58,546.00 1593.58,546.00
             1593.58,546.00 1554.29,601.00 1554.29,601.00
             1554.29,601.00 1534.00,630.00 1534.00,630.00
             1534.00,630.00 1559.00,630.00 1559.00,630.00
             1559.00,630.00 1566.54,629.01 1566.54,629.01
             1566.54,629.01 1583.14,607.00 1583.14,607.00
             1583.14,607.00 1633.00,538.00 1633.00,538.00
             1633.00,538.00 1639.53,553.00 1639.53,553.00
             1639.53,553.00 1635.14,561.00 1635.14,561.00
             1635.14,561.00 1625.14,575.00 1625.14,575.00
             1625.14,575.00 1600.14,610.00 1600.14,610.00
             1600.14,610.00 1587.00,630.00 1587.00,630.00
             1587.00,630.00 1611.00,630.00 1611.00,630.00
             1621.58,629.98 1621.45,626.58 1627.58,618.00
             1627.58,618.00 1645.42,593.00 1645.42,593.00
             1648.86,588.19 1652.85,583.53 1655.00,578.00
             1655.00,578.00 1657.00,578.00 1657.00,578.00
             1657.00,578.00 1680.05,618.00 1680.05,618.00
             1686.54,628.25 1686.04,629.98 1696.00,630.00
             1696.00,630.00 1718.00,630.00 1718.00,630.00
             1718.00,630.00 1710.00,615.00 1710.00,615.00
             1710.00,615.00 1729.91,613.98 1729.91,613.98
             1729.91,613.98 1738.29,604.00 1738.29,604.00
             1738.29,604.00 1755.00,579.00 1755.00,579.00
             1755.00,579.00 1757.00,579.00 1757.00,579.00
             1757.00,579.00 1765.57,594.00 1765.57,594.00
             1765.57,594.00 1771.21,601.98 1771.21,601.98
             1771.21,601.98 1779.00,603.00 1779.00,603.00
             1779.00,603.00 1801.00,603.00 1801.00,603.00
             1801.00,603.00 1788.00,579.00 1788.00,579.00
             1790.83,579.00 1796.33,578.61 1798.67,580.02
             1801.47,581.72 1805.11,588.96 1806.77,592.00
             1806.77,592.00 1821.06,616.00 1821.06,616.00
             1829.27,629.44 1828.68,629.98 1838.00,630.00
             1838.00,630.00 1860.00,630.00 1860.00,630.00
             1860.00,630.00 1852.31,616.00 1852.31,616.00
             1852.31,616.00 1831.95,582.00 1831.95,582.00
             1831.95,582.00 1824.40,569.00 1824.40,569.00
             1824.40,569.00 1821.34,562.42 1821.34,562.42
             1821.34,562.42 1830.58,548.00 1830.58,548.00
             1830.58,548.00 1857.00,510.00 1857.00,510.00
             1857.00,510.00 1894.55,572.00 1894.55,572.00
             1894.55,572.00 1912.32,602.00 1912.32,602.00
             1912.32,602.00 1923.68,621.00 1923.68,621.00
             1924.96,623.05 1927.64,627.79 1929.53,629.01
             1931.44,630.24 1934.76,630.00 1937.00,630.00
             1937.00,630.00 1957.00,630.00 1957.00,630.00
             1965.30,629.84 1966.48,625.35 1971.00,619.00
             1971.00,619.00 1990.29,592.00 1990.29,592.00
             1990.29,592.00 2047.42,512.00 2047.42,512.00
             2047.42,512.00 2078.00,468.00 2078.00,468.00
             2078.00,468.00 2086.63,482.58 2086.63,482.58
             2086.63,482.58 2080.14,493.00 2080.14,493.00
             2080.14,493.00 2062.29,518.00 2062.29,518.00
             2062.29,518.00 2010.86,590.00 2010.86,590.00
             2010.86,590.00 1983.00,630.00 1983.00,630.00
             1983.00,630.00 2007.00,630.00 2007.00,630.00
             2007.00,630.00 2014.91,628.98 2014.91,628.98
             2014.91,628.98 2022.58,620.00 2022.58,620.00
             2022.58,620.00 2036.86,600.00 2036.86,600.00
             2036.86,600.00 2078.29,542.00 2078.29,542.00
             2078.29,542.00 2103.00,508.00 2103.00,508.00
             2103.00,508.00 2122.55,541.00 2122.55,541.00
             2122.55,541.00 2143.34,576.00 2143.34,576.00
             2143.34,576.00 2154.69,595.00 2154.69,595.00
             2154.69,595.00 2159.51,605.00 2159.51,605.00
             2159.51,605.00 2154.42,614.00 2154.42,614.00
             2154.42,614.00 2144.00,630.00 2144.00,630.00
             2144.00,630.00 2168.00,630.00 2168.00,630.00
             2168.00,630.00 2174.91,629.40 2174.91,629.40
             2174.91,629.40 2186.32,616.60 2186.32,616.60
             2186.32,616.60 2197.00,615.00 2197.00,615.00
             2197.00,615.00 2194.35,606.00 2194.35,606.00
             2194.35,606.00 2199.71,597.00 2199.71,597.00
             2199.71,597.00 2211.00,580.00 2211.00,580.00
             2211.00,580.00 2219.63,594.58 2219.63,594.58
             2219.63,594.58 2213.14,605.00 2213.14,605.00
             2213.14,605.00 2196.00,630.00 2196.00,630.00
             2196.00,630.00 2221.00,630.00 2221.00,630.00
             2221.00,630.00 2227.91,628.98 2227.91,628.98
             2227.91,628.98 2236.00,620.00 2236.00,620.00
             2236.00,620.00 2242.32,628.98 2242.32,628.98
             2242.32,628.98 2250.00,630.00 2250.00,630.00
             2250.00,630.00 2272.00,630.00 2272.00,630.00
             2269.28,622.60 2264.50,615.67 2260.32,609.00
             2258.83,606.63 2254.42,599.48 2254.11,597.00
             2253.74,594.02 2256.09,591.30 2257.71,589.00
             2264.85,578.87 2263.91,579.00 2275.00,579.00
             2275.00,579.00 2272.35,570.00 2272.35,570.00
             2272.35,570.00 2277.71,561.00 2277.71,561.00
             2277.71,561.00 2289.00,544.00 2289.00,544.00
             2289.00,544.00 2328.68,609.00 2328.68,609.00
             2328.68,609.00 2336.69,622.00 2336.69,622.00
             2336.69,622.00 2341.53,629.01 2341.53,629.01
             2341.53,629.01 2349.00,630.00 2349.00,630.00
             2349.00,630.00 2372.00,630.00 2372.00,630.00
             2372.00,630.00 2359.87,609.00 2359.87,609.00
             2359.87,609.00 2326.95,554.00 2326.95,554.00
             2326.95,554.00 2314.32,533.00 2314.32,533.00
             2314.32,533.00 2308.24,521.00 2308.24,521.00
             2308.24,521.00 2312.71,512.00 2312.71,512.00
             2312.71,512.00 2326.29,493.00 2326.29,493.00
             2326.29,493.00 2360.58,445.00 2360.58,445.00
             2360.58,445.00 2382.00,416.00 2382.00,416.00
             2382.00,416.00 2413.55,469.00 2413.55,469.00
             2413.55,469.00 2456.45,541.00 2456.45,541.00
             2456.45,541.00 2479.31,579.00 2479.31,579.00
             2479.31,579.00 2501.13,615.00 2501.13,615.00
             2503.17,618.56 2507.60,627.85 2511.21,629.40
             2512.89,630.12 2516.12,630.00 2518.00,630.00
             2518.00,630.00 2540.00,630.00 2540.00,630.00
             2537.65,622.56 2530.29,611.93 2526.06,605.00
             2526.06,605.00 2502.68,566.00 2502.68,566.00
             2502.68,566.00 2471.80,514.00 2471.80,514.00
             2471.80,514.00 2435.13,453.00 2435.13,453.00
             2435.13,453.00 2426.45,439.00 2426.45,439.00
             2426.45,439.00 2408.68,409.00 2408.68,409.00
             2406.64,405.74 2399.02,394.75 2399.54,391.42
             2399.87,389.27 2408.06,378.51 2409.86,376.00
             2409.86,376.00 2436.00,340.00 2436.00,340.00
             2436.00,340.00 2455.55,373.00 2455.55,373.00
             2455.55,373.00 2484.06,421.00 2484.06,421.00
             2484.06,421.00 2497.95,444.00 2497.95,444.00
             2499.78,446.93 2505.20,455.24 2506.06,458.00
             2507.68,463.23 2501.86,468.99 2499.00,473.00
             2499.00,473.00 2485.42,492.00 2485.42,492.00
             2483.84,494.22 2480.52,498.18 2480.89,501.00
             2481.27,503.81 2486.88,509.69 2488.87,512.00
             2492.41,516.11 2493.48,517.74 2498.00,521.00
             2498.00,521.00 2522.00,486.00 2522.00,486.00
             2522.00,486.00 2524.00,486.00 2524.00,486.00
             2525.98,491.19 2531.23,497.23 2530.45,501.00
             2530.02,503.09 2526.91,507.14 2525.58,509.00
             2525.58,509.00 2514.86,524.00 2514.86,524.00
             2513.00,526.60 2509.52,530.65 2509.97,534.00
             2510.50,537.82 2516.26,543.15 2518.83,546.00
             2522.14,549.67 2522.85,550.96 2527.00,554.00
             2530.64,547.68 2542.72,530.15 2548.00,526.00
             2548.00,526.00 2565.94,557.00 2565.94,557.00
             2565.94,557.00 2595.60,607.00 2595.60,607.00
             2595.60,607.00 2603.69,620.00 2603.69,620.00
             2603.69,620.00 2609.61,629.01 2609.61,629.01
             2609.61,629.01 2617.00,630.00 2617.00,630.00
             2617.00,630.00 2640.00,630.00 2640.00,630.00
             2640.00,630.00 2632.00,615.00 2632.00,615.00
             2634.42,615.00 2640.75,615.26 2642.70,614.43
             2645.48,613.24 2648.35,608.49 2650.14,606.00
             2650.14,606.00 2665.14,585.00 2665.14,585.00
             2668.62,580.14 2671.06,574.83 2677.00,573.00
             2677.18,565.63 2681.67,562.80 2685.00,556.00
             2685.00,556.00 2693.63,570.58 2693.63,570.58
             2693.63,570.58 2685.71,583.00 2685.71,583.00
             2685.71,583.00 2664.00,615.00 2664.00,615.00
             2664.00,615.00 2689.00,615.00 2689.00,615.00
             2689.00,615.00 2695.70,613.98 2695.70,613.98
             2695.70,613.98 2710.00,596.00 2710.00,596.00
             2710.00,596.00 2721.61,614.01 2721.61,614.01
             2721.61,614.01 2729.00,615.00 2729.00,615.00
             2729.00,615.00 2752.00,615.00 2752.00,615.00
             2752.00,615.00 2734.95,586.00 2734.95,586.00
             2733.15,583.13 2727.90,575.16 2728.05,572.00
             2728.17,569.67 2730.39,566.87 2731.71,565.00
             2731.71,565.00 2741.71,551.00 2741.71,551.00
             2745.37,545.86 2748.68,538.95 2755.00,537.00
             2755.18,529.63 2759.67,526.80 2763.00,520.00
             2763.00,520.00 2788.87,562.00 2788.87,562.00
             2788.87,562.00 2798.31,578.00 2798.31,578.00
             2799.40,582.43 2792.96,589.46 2790.42,593.00
             2785.13,600.40 2767.77,623.47 2765.00,630.00
             2765.00,630.00 2789.00,630.00 2789.00,630.00
             2789.00,630.00 2795.91,629.40 2795.91,629.40
             2795.91,629.40 2802.14,623.00 2802.14,623.00
             2802.14,623.00 2814.00,605.00 2814.00,605.00
             2820.16,612.51 2818.86,614.71 2827.00,615.00
             2827.00,615.00 2817.00,630.00 2817.00,630.00
             2817.00,630.00 2841.00,630.00 2841.00,630.00
             2852.49,629.98 2852.92,625.10 2859.42,616.00
             2859.42,616.00 2875.86,593.00 2875.86,593.00
             2875.86,593.00 2927.29,521.00 2927.29,521.00
             2927.29,521.00 2958.00,479.00 2958.00,479.00
             2958.00,479.00 2999.00,548.00 2999.00,548.00
             3000.64,543.87 3000.00,537.54 3000.00,533.00
             3000.00,533.00 3000.00,505.00 3000.00,505.00
             2999.99,500.31 3000.26,498.28 2997.90,494.00
             2997.90,494.00 2981.58,467.00 2981.58,467.00
             2980.03,464.52 2975.60,457.98 2975.50,455.28
             2975.40,452.55 2981.24,445.47 2983.00,443.00
             2986.17,438.54 2998.00,422.87 2999.30,419.00
             3000.06,416.75 2999.99,414.34 3000.00,412.00
             3000.00,412.00 3000.00,374.00 3000.00,374.00
             3000.00,374.00 2987.00,392.00 2987.00,392.00
             2987.00,392.00 2973.94,371.00 2973.94,371.00
             2973.94,371.00 2942.45,319.00 2942.45,319.00
             2942.45,319.00 2934.31,305.00 2934.31,305.00
             2934.31,305.00 2929.31,297.00 2929.31,297.00
             2924.56,288.48 2920.67,278.10 2909.00,279.11
             2900.62,279.83 2896.54,287.86 2892.14,294.00
             2892.14,294.00 2858.00,343.00 2858.00,343.00
             2848.53,330.73 2845.55,316.10 2834.00,315.11
             2830.87,314.84 2827.74,315.32 2825.04,317.01
             2820.41,319.89 2810.72,334.78 2807.00,340.00
             2807.00,340.00 2764.86,399.00 2764.86,399.00
             2759.90,405.93 2745.75,424.50 2743.00,431.00
             2743.00,431.00 2741.00,431.00 2741.00,431.00
             2741.00,431.00 2723.45,401.00 2723.45,401.00
             2723.45,401.00 2699.45,361.00 2699.45,361.00
             2699.45,361.00 2690.00,345.00 2690.00,345.00
             2683.90,335.63 2679.46,319.95 2666.00,321.11
             2663.36,321.33 2661.24,322.06 2659.09,323.65
             2655.01,326.67 2645.06,341.14 2643.00,346.00
             2643.00,346.00 2641.00,346.00 2641.00,346.00
             2641.00,346.00 2607.06,289.00 2607.06,289.00
             2607.06,289.00 2559.68,210.00 2559.68,210.00
             2559.68,210.00 2541.99,180.00 2541.99,180.00
             2538.52,174.08 2535.56,168.76 2528.00,168.11
             2517.78,167.23 2514.03,174.78 2508.86,182.00
             2508.86,182.00 2474.00,232.00 2474.00,232.00 Z
           M 2526.00,205.00
           C 2526.00,205.00 2549.45,244.00 2549.45,244.00
             2549.45,244.00 2581.55,297.00 2581.55,297.00
             2581.55,297.00 2600.42,329.00 2600.42,329.00
             2600.42,329.00 2617.58,357.00 2617.58,357.00
             2617.58,357.00 2623.86,370.00 2623.86,370.00
             2623.86,370.00 2615.00,385.00 2615.00,385.00
             2606.12,376.77 2600.01,350.36 2584.00,358.45
             2582.13,359.40 2580.73,360.59 2579.30,362.10
             2579.30,362.10 2573.29,370.00 2573.29,370.00
             2573.29,370.00 2565.00,382.00 2565.00,382.00
             2565.00,382.00 2563.00,382.00 2563.00,382.00
             2563.00,382.00 2508.81,292.00 2508.81,292.00
             2508.81,292.00 2494.95,269.00 2494.95,269.00
             2494.95,269.00 2489.19,257.00 2489.19,257.00
             2489.19,257.00 2497.71,243.00 2497.71,243.00
             2497.71,243.00 2514.86,219.00 2514.86,219.00
             2514.86,219.00 2526.00,205.00 2526.00,205.00 Z
           M 828.00,220.00
           C 828.00,220.00 851.45,259.00 851.45,259.00
             851.45,259.00 883.55,312.00 883.55,312.00
             883.55,312.00 902.42,344.00 902.42,344.00
             902.42,344.00 919.58,372.00 919.58,372.00
             919.58,372.00 925.86,385.00 925.86,385.00
             925.86,385.00 917.00,400.00 917.00,400.00
             908.12,391.77 902.01,365.36 886.00,373.45
             884.13,374.40 882.73,375.59 881.30,377.10
             881.30,377.10 875.29,385.00 875.29,385.00
             875.29,385.00 867.00,397.00 867.00,397.00
             867.00,397.00 865.00,397.00 865.00,397.00
             865.00,397.00 810.81,307.00 810.81,307.00
             810.81,307.00 796.95,284.00 796.95,284.00
             796.95,284.00 791.19,272.00 791.19,272.00
             791.19,272.00 799.71,258.00 799.71,258.00
             799.71,258.00 816.86,234.00 816.86,234.00
             816.86,234.00 828.00,220.00 828.00,220.00 Z
           M 2448.00,241.00
           C 2450.14,244.21 2456.29,252.28 2455.73,256.00
             2455.37,258.42 2451.16,263.79 2449.58,266.00
             2449.58,266.00 2434.58,287.00 2434.58,287.00
             2434.58,287.00 2381.00,362.00 2381.00,362.00
             2378.04,359.39 2373.65,352.88 2372.80,349.00
             2371.96,345.17 2374.79,341.92 2376.86,339.00
             2376.86,339.00 2389.71,321.00 2389.71,321.00
             2389.71,321.00 2427.58,268.00 2427.58,268.00
             2432.26,261.46 2442.68,245.50 2448.00,241.00 Z
           M 2046.00,247.00
           C 2046.00,247.00 2069.45,286.00 2069.45,286.00
             2069.45,286.00 2117.43,366.00 2117.43,366.00
             2117.43,366.00 2125.55,379.00 2125.55,379.00
             2125.55,379.00 2134.34,394.00 2134.34,394.00
             2137.36,398.64 2141.47,403.27 2141.00,409.00
             2132.36,400.99 2128.98,382.76 2117.00,381.23
             2109.65,380.29 2105.29,385.69 2101.42,391.00
             2096.28,398.07 2086.05,414.24 2080.00,419.00
             2080.00,419.00 2068.58,400.00 2068.58,400.00
             2068.58,400.00 2028.19,333.00 2028.19,333.00
             2028.19,333.00 2014.32,310.00 2014.32,310.00
             2014.32,310.00 2009.19,299.00 2009.19,299.00
             2009.19,299.00 2017.71,285.00 2017.71,285.00
             2017.71,285.00 2034.86,261.00 2034.86,261.00
             2034.86,261.00 2046.00,247.00 2046.00,247.00 Z
           M 750.00,256.00
           C 751.90,258.85 757.70,266.91 757.80,270.00
             757.89,272.98 754.04,277.55 752.29,280.00
             752.29,280.00 735.86,303.00 735.86,303.00
             735.86,303.00 668.00,398.00 668.00,398.00
             668.00,398.00 649.42,424.00 649.42,424.00
             646.10,428.65 643.18,434.31 638.00,437.00
             638.00,437.00 630.90,423.00 630.90,423.00
             630.90,423.00 638.14,411.00 638.14,411.00
             638.14,411.00 656.00,386.00 656.00,386.00
             656.00,386.00 718.86,298.00 718.86,298.00
             718.86,298.00 738.14,271.00 738.14,271.00
             738.14,271.00 750.00,256.00 750.00,256.00 Z
           M 1383.00,256.00
           C 1383.00,256.00 1394.45,275.00 1394.45,275.00
             1394.45,275.00 1421.58,320.00 1421.58,320.00
             1421.58,320.00 1431.06,336.00 1431.06,336.00
             1431.06,336.00 1433.93,344.00 1433.93,344.00
             1433.93,344.00 1423.29,360.00 1423.29,360.00
             1423.29,360.00 1398.00,396.00 1398.00,396.00
             1398.00,396.00 1381.55,369.00 1381.55,369.00
             1381.55,369.00 1358.69,331.00 1358.69,331.00
             1356.17,326.47 1346.05,312.12 1346.19,308.00
             1346.31,304.70 1352.59,296.97 1354.71,294.00
             1354.71,294.00 1371.86,270.00 1371.86,270.00
             1375.32,265.17 1378.44,259.86 1383.00,256.00 Z
           M 348.00,262.00
           C 348.00,262.00 359.45,281.00 359.45,281.00
             359.45,281.00 383.45,321.00 383.45,321.00
             383.45,321.00 445.87,425.00 445.87,425.00
             445.87,425.00 468.77,463.00 468.77,463.00
             468.77,463.00 475.78,477.00 475.78,477.00
             475.78,477.00 472.00,484.00 472.00,484.00
             472.00,484.00 462.00,498.00 462.00,498.00
             462.00,498.00 460.00,498.00 460.00,498.00
             460.00,498.00 436.55,459.00 436.55,459.00
             436.55,459.00 416.45,426.00 416.45,426.00
             411.72,418.07 406.47,403.76 395.00,405.23
             387.08,406.24 380.93,416.72 377.00,423.00
             377.00,423.00 375.00,423.00 375.00,423.00
             375.00,423.00 362.43,402.00 362.43,402.00
             362.43,402.00 328.95,346.00 328.95,346.00
             328.95,346.00 316.32,325.00 316.32,325.00
             316.32,325.00 311.19,314.00 311.19,314.00
             311.19,314.00 319.71,300.00 319.71,300.00
             319.71,300.00 336.86,276.00 336.86,276.00
             336.86,276.00 348.00,262.00 348.00,262.00 Z
           M 1572.00,271.00
           C 1572.00,271.00 1595.45,310.00 1595.45,310.00
             1595.45,310.00 1644.01,391.00 1644.01,391.00
             1644.01,391.00 1662.95,422.00 1662.95,422.00
             1664.95,425.16 1670.30,433.49 1670.34,437.00
             1670.38,440.82 1663.79,448.69 1661.42,452.00
             1661.42,452.00 1635.00,489.00 1635.00,489.00
             1629.80,484.58 1626.02,476.97 1622.69,471.00
             1622.69,471.00 1608.99,448.00 1608.99,448.00
             1608.99,448.00 1588.20,414.00 1588.20,414.00
             1588.20,414.00 1558.55,364.00 1558.55,364.00
             1558.55,364.00 1541.58,336.00 1541.58,336.00
             1539.74,333.05 1535.07,326.37 1535.19,323.00
             1535.31,319.70 1541.59,311.97 1543.71,309.00
             1543.71,309.00 1560.86,285.00 1560.86,285.00
             1564.32,280.17 1567.44,274.86 1572.00,271.00 Z
           M 144.00,280.00
           C 144.00,280.00 155.45,299.00 155.45,299.00
             155.45,299.00 179.45,339.00 179.45,339.00
             182.11,343.48 191.47,356.40 190.91,361.00
             190.53,364.21 183.61,372.94 181.42,376.00
             181.42,376.00 156.00,412.00 156.00,412.00
             156.00,412.00 154.00,412.00 154.00,412.00
             154.00,412.00 142.55,393.00 142.55,393.00
             142.55,393.00 119.13,354.00 119.13,354.00
             116.64,349.66 107.05,336.07 107.19,332.00
             107.31,328.70 113.59,320.97 115.71,318.00
             115.71,318.00 132.86,294.00 132.86,294.00
             136.32,289.17 139.44,283.86 144.00,280.00 Z
           M 2472.00,281.00
           C 2472.00,281.00 2483.45,300.00 2483.45,300.00
             2483.45,300.00 2503.55,333.00 2503.55,333.00
             2503.55,333.00 2522.42,365.00 2522.42,365.00
             2522.42,365.00 2537.66,390.00 2537.66,390.00
             2539.60,393.00 2545.30,401.85 2545.76,405.00
             2546.27,408.46 2543.73,411.37 2541.86,414.00
             2537.72,419.83 2529.83,432.97 2524.00,436.00
             2524.00,436.00 2475.32,355.00 2475.32,355.00
             2475.32,355.00 2460.31,330.00 2460.31,330.00
             2458.24,326.79 2451.50,316.21 2450.80,313.00
             2449.96,309.17 2452.79,305.92 2454.86,303.00
             2459.27,296.79 2466.41,285.40 2472.00,281.00 Z
           M 1968.00,283.00
           C 1968.00,283.00 1975.80,297.00 1975.80,297.00
             1975.80,297.00 1969.58,308.00 1969.58,308.00
             1969.58,308.00 1950.29,335.00 1950.29,335.00
             1950.29,335.00 1891.71,417.00 1891.71,417.00
             1891.71,417.00 1859.00,462.00 1859.00,462.00
             1859.00,462.00 1851.25,447.00 1851.25,447.00
             1851.25,447.00 1857.58,436.00 1857.58,436.00
             1857.58,436.00 1875.42,411.00 1875.42,411.00
             1875.42,411.00 1937.58,324.00 1937.58,324.00
             1937.58,324.00 1956.14,298.00 1956.14,298.00
             1956.14,298.00 1968.00,283.00 1968.00,283.00 Z
           M 1305.00,292.00
           C 1306.90,294.85 1312.70,302.91 1312.80,306.00
             1312.91,309.62 1304.03,320.57 1301.58,324.00
             1301.58,324.00 1269.00,370.00 1269.00,370.00
             1269.00,370.00 1267.00,370.00 1267.00,370.00
             1265.05,367.01 1259.53,359.32 1259.69,356.00
             1259.86,352.34 1268.50,341.51 1271.00,338.00
             1271.00,338.00 1291.71,309.00 1291.71,309.00
             1295.52,303.65 1300.11,296.14 1305.00,292.00 Z
           M 774.00,296.00
           C 774.00,296.00 797.45,335.00 797.45,335.00
             797.45,335.00 817.55,368.00 817.55,368.00
             817.55,368.00 826.34,383.00 826.34,383.00
             826.34,383.00 842.19,409.00 842.19,409.00
             843.85,411.71 847.87,417.96 847.86,421.00
             847.85,424.52 841.77,431.93 839.58,435.00
             839.58,435.00 816.71,467.00 816.71,467.00
             816.71,467.00 759.58,547.00 759.58,547.00
             759.58,547.00 730.00,589.00 730.00,589.00
             730.00,589.00 713.19,562.00 713.19,562.00
             713.19,562.00 674.68,498.00 674.68,498.00
             674.68,498.00 660.19,474.00 660.19,474.00
             660.19,474.00 654.82,463.00 654.82,463.00
             654.82,463.00 662.58,450.00 662.58,450.00
             662.58,450.00 683.29,421.00 683.29,421.00
             683.29,421.00 743.29,337.00 743.29,337.00
             743.29,337.00 761.86,311.00 761.86,311.00
             761.86,311.00 774.00,296.00 774.00,296.00 Z
           M 270.00,298.00
           C 271.90,300.85 277.70,308.91 277.80,312.00
             277.91,315.62 269.03,326.57 266.58,330.00
             266.58,330.00 234.00,376.00 234.00,376.00
             234.00,376.00 232.00,376.00 232.00,376.00
             230.05,373.01 224.53,365.32 224.69,362.00
             224.86,358.34 233.50,347.51 236.00,344.00
             236.00,344.00 256.71,315.00 256.71,315.00
             260.52,309.65 265.11,302.14 270.00,298.00 Z
           M 1494.00,307.00
           C 1495.90,309.85 1501.70,317.91 1501.80,321.00
             1501.90,324.25 1496.16,331.18 1494.14,334.00
             1494.14,334.00 1473.42,363.00 1473.42,363.00
             1473.42,363.00 1392.00,477.00 1392.00,477.00
             1392.00,477.00 1369.14,509.00 1369.14,509.00
             1365.62,513.91 1362.48,520.15 1357.00,523.00
             1357.00,523.00 1351.22,510.00 1351.22,510.00
             1351.22,510.00 1359.33,497.00 1359.33,497.00
             1359.33,497.00 1380.66,465.00 1380.66,465.00
             1380.66,465.00 1408.58,425.00 1408.58,425.00
             1408.58,425.00 1454.29,361.00 1454.29,361.00
             1454.29,361.00 1479.29,326.00 1479.29,326.00
             1479.29,326.00 1494.00,307.00 1494.00,307.00 Z
           M 2910.00,316.00
           C 2910.00,316.00 2921.45,335.00 2921.45,335.00
             2921.45,335.00 2951.68,385.00 2951.68,385.00
             2951.68,385.00 2963.05,404.00 2963.05,404.00
             2964.79,406.77 2968.24,411.76 2968.39,415.00
             2968.58,419.05 2962.40,426.44 2960.00,430.00
             2952.71,423.24 2950.43,412.57 2943.82,406.21
             2932.49,395.31 2923.85,407.23 2917.58,416.00
             2917.58,416.00 2909.00,428.00 2909.00,428.00
             2904.12,423.44 2900.48,415.83 2897.13,410.00
             2897.13,410.00 2882.05,385.00 2882.05,385.00
             2879.90,381.57 2873.06,371.61 2873.19,368.00
             2873.31,364.70 2879.59,356.97 2881.71,354.00
             2881.71,354.00 2898.86,330.00 2898.86,330.00
             2902.32,325.17 2905.44,319.86 2910.00,316.00 Z
           M 1992.00,323.00
           C 1992.00,323.00 2003.45,342.00 2003.45,342.00
             2003.45,342.00 2023.55,375.00 2023.55,375.00
             2023.55,375.00 2042.42,407.00 2042.42,407.00
             2042.42,407.00 2056.34,430.00 2056.34,430.00
             2057.98,432.52 2062.73,439.31 2063.00,442.00
             2063.36,445.48 2058.45,451.17 2056.42,454.00
             2056.42,454.00 2035.71,483.00 2035.71,483.00
             2035.71,483.00 1976.42,566.00 1976.42,566.00
             1976.42,566.00 1957.86,592.00 1957.86,592.00
             1954.22,597.08 1950.76,602.97 1946.00,607.00
             1946.00,607.00 1938.94,595.00 1938.94,595.00
             1938.94,595.00 1915.55,556.00 1915.55,556.00
             1915.55,556.00 1892.70,518.00 1892.70,518.00
             1892.70,518.00 1879.30,496.00 1879.30,496.00
             1878.18,493.96 1875.28,489.12 1875.20,487.00
             1875.08,483.68 1880.02,477.78 1882.00,475.00
             1882.00,475.00 1902.71,446.00 1902.71,446.00
             1902.71,446.00 1962.00,363.00 1962.00,363.00
             1962.00,363.00 1980.58,337.00 1980.58,337.00
             1984.09,332.08 1987.22,326.76 1992.00,323.00 Z
           M 1212.00,331.00
           C 1212.00,331.00 1221.77,347.00 1221.77,347.00
             1222.89,349.08 1225.22,352.73 1225.31,355.00
             1225.45,358.71 1218.73,366.77 1216.42,370.00
             1216.42,370.00 1191.00,406.00 1191.00,406.00
             1191.00,406.00 1189.00,406.00 1189.00,406.00
             1189.00,406.00 1178.70,389.00 1178.70,389.00
             1178.70,389.00 1175.92,382.00 1175.92,382.00
             1175.92,382.00 1184.42,368.00 1184.42,368.00
             1184.42,368.00 1212.00,331.00 1212.00,331.00 Z
           M 1329.00,332.00
           C 1329.00,332.00 1367.58,396.00 1367.58,396.00
             1367.58,396.00 1377.01,412.00 1377.01,412.00
             1378.42,414.46 1380.34,417.02 1379.64,420.00
             1379.07,422.47 1371.65,432.43 1369.71,434.98
             1368.50,436.57 1367.12,438.71 1364.91,438.85
             1361.75,439.04 1358.52,434.39 1352.00,435.23
             1346.09,435.98 1342.68,440.53 1339.42,445.00
             1334.84,451.30 1328.86,461.39 1323.00,466.00
             1323.00,466.00 1294.32,418.00 1294.32,418.00
             1292.31,414.79 1282.98,399.62 1282.91,397.00
             1282.82,393.25 1290.85,383.43 1293.29,380.00
             1293.29,380.00 1315.42,349.00 1315.42,349.00
             1319.43,343.40 1323.64,336.22 1329.00,332.00 Z
           M 2832.00,352.00
           C 2834.44,355.66 2840.89,363.59 2839.48,368.00
             2838.84,369.99 2833.66,376.88 2832.14,379.00
             2832.14,379.00 2817.86,399.00 2817.86,399.00
             2817.86,399.00 2783.58,447.00 2783.58,447.00
             2778.96,453.45 2770.69,466.52 2765.00,471.00
             2762.52,467.20 2756.60,459.61 2757.95,455.00
             2758.60,452.78 2762.87,447.17 2764.42,445.00
             2764.42,445.00 2778.71,425.00 2778.71,425.00
             2778.71,425.00 2813.00,377.00 2813.00,377.00
             2817.48,370.71 2826.78,356.42 2832.00,352.00 Z
           M 2667.00,358.00
           C 2667.00,358.00 2678.45,377.00 2678.45,377.00
             2678.45,377.00 2707.42,425.00 2707.42,425.00
             2707.42,425.00 2718.81,444.00 2718.81,444.00
             2720.29,446.40 2723.82,451.38 2724.08,454.00
             2724.49,458.14 2717.82,466.00 2715.00,469.00
             2715.00,469.00 2676.32,405.00 2676.32,405.00
             2676.32,405.00 2664.32,385.00 2664.32,385.00
             2662.73,382.45 2658.04,375.56 2657.64,373.00
             2656.93,368.49 2663.73,360.77 2667.00,358.00 Z
           M 1134.00,367.00
           C 1136.44,370.66 1142.89,378.59 1141.48,383.00
             1140.84,384.99 1135.66,391.88 1134.14,394.00
             1134.14,394.00 1119.86,414.00 1119.86,414.00
             1119.86,414.00 1085.58,462.00 1085.58,462.00
             1080.96,468.45 1072.69,481.52 1067.00,486.00
             1064.52,482.20 1058.60,474.61 1059.95,470.00
             1060.60,467.78 1064.87,462.17 1066.42,460.00
             1066.42,460.00 1080.71,440.00 1080.71,440.00
             1080.71,440.00 1115.00,392.00 1115.00,392.00
             1119.48,385.71 1128.78,371.42 1134.00,367.00 Z
           M 969.00,373.00
           C 969.00,373.00 980.45,392.00 980.45,392.00
             980.45,392.00 1009.42,440.00 1009.42,440.00
             1009.42,440.00 1020.81,459.00 1020.81,459.00
             1022.29,461.40 1025.82,466.38 1026.08,469.00
             1026.49,473.14 1019.82,481.00 1017.00,484.00
             1017.00,484.00 978.32,420.00 978.32,420.00
             978.32,420.00 966.32,400.00 966.32,400.00
             964.73,397.45 960.04,390.56 959.64,388.00
             958.93,383.49 965.73,375.77 969.00,373.00 Z
           M 2358.00,376.00
           C 2358.00,376.00 2362.80,385.00 2362.80,385.00
             2362.80,385.00 2358.14,394.00 2358.14,394.00
             2358.14,394.00 2346.00,411.00 2346.00,411.00
             2346.00,411.00 2289.00,491.00 2289.00,491.00
             2289.00,491.00 2283.67,481.00 2283.67,481.00
             2283.67,481.00 2287.58,473.00 2287.58,473.00
             2287.58,473.00 2298.29,458.00 2298.29,458.00
             2298.29,458.00 2337.58,403.00 2337.58,403.00
             2337.58,403.00 2358.00,376.00 2358.00,376.00 Z
           M 1242.00,380.00
           C 1243.60,383.03 1249.18,392.17 1249.17,395.00
             1249.15,398.46 1243.04,405.96 1240.86,409.00
             1240.86,409.00 1224.42,432.00 1224.42,432.00
             1220.91,436.92 1217.78,442.24 1213.00,446.00
             1210.69,442.53 1205.12,435.20 1205.72,431.00
             1206.17,427.84 1213.12,419.05 1215.29,416.00
             1220.57,408.59 1236.70,384.76 1242.00,380.00 Z
           M 2193.00,382.00
           C 2193.00,382.00 2204.45,401.00 2204.45,401.00
             2204.45,401.00 2232.81,448.00 2232.81,448.00
             2232.81,448.00 2242.95,465.00 2242.95,465.00
             2242.95,465.00 2247.16,474.00 2247.16,474.00
             2247.16,474.00 2243.00,482.00 2243.00,482.00
             2243.00,482.00 2228.00,501.00 2228.00,501.00
             2228.00,501.00 2214.06,477.00 2214.06,477.00
             2214.06,477.00 2197.55,449.00 2197.55,449.00
             2197.55,449.00 2187.77,433.00 2187.77,433.00
             2187.77,433.00 2174.61,409.00 2174.61,409.00
             2174.61,409.00 2179.00,400.00 2179.00,400.00
             2179.00,400.00 2193.00,382.00 2193.00,382.00 Z
           M 208.00,386.00
           C 209.80,389.22 214.87,396.62 214.86,400.00
             214.85,403.61 208.15,411.80 205.86,415.00
             205.86,415.00 189.42,438.00 189.42,438.00
             185.91,442.92 182.78,448.24 178.00,452.00
             175.88,448.82 170.71,441.69 170.66,438.00
             170.62,434.19 177.22,426.31 179.58,423.00
             179.58,423.00 206.00,386.00 206.00,386.00
             206.00,386.00 208.00,386.00 208.00,386.00 Z
           M 2856.00,392.00
           C 2856.00,392.00 2880.06,432.00 2880.06,432.00
             2882.48,435.97 2890.20,447.01 2890.39,451.00
             2890.56,454.55 2887.39,458.24 2885.42,461.00
             2885.42,461.00 2871.86,480.00 2871.86,480.00
             2871.86,480.00 2837.58,528.00 2837.58,528.00
             2837.58,528.00 2818.00,556.00 2818.00,556.00
             2818.00,556.00 2816.00,556.00 2816.00,556.00
             2816.00,556.00 2792.68,517.00 2792.68,517.00
             2790.37,513.31 2782.06,500.60 2781.72,497.00
             2781.42,493.78 2784.23,490.50 2786.00,488.00
             2786.00,488.00 2798.86,470.00 2798.86,470.00
             2798.86,470.00 2836.00,418.00 2836.00,418.00
             2840.77,411.30 2850.21,396.56 2856.00,392.00 Z
           M 1788.00,394.00
           C 1788.00,394.00 1799.45,413.00 1799.45,413.00
             1799.45,413.00 1810.31,431.00 1810.31,431.00
             1812.01,434.05 1817.71,442.11 1817.80,445.00
             1817.90,448.41 1810.91,456.92 1808.71,460.00
             1808.71,460.00 1781.00,498.00 1781.00,498.00
             1781.00,498.00 1759.42,462.00 1759.42,462.00
             1757.36,458.68 1751.07,449.55 1751.19,446.00
             1751.31,442.70 1757.59,434.97 1759.71,432.00
             1759.71,432.00 1776.86,408.00 1776.86,408.00
             1780.32,403.17 1783.44,397.86 1788.00,394.00 Z
           M 2589.00,394.00
           C 2590.90,396.85 2596.70,404.91 2596.80,408.00
             2596.92,412.16 2590.13,419.54 2587.00,422.00
             2585.30,419.40 2580.05,411.64 2579.64,409.00
             2578.93,404.49 2585.73,396.77 2589.00,394.00 Z
           M 2640.00,395.00
           C 2640.00,395.00 2660.45,429.00 2660.45,429.00
             2660.45,429.00 2683.30,467.00 2683.30,467.00
             2685.97,471.84 2696.96,487.97 2697.23,492.00
             2697.52,496.42 2690.32,504.39 2687.00,507.00
             2687.00,507.00 2677.55,491.00 2677.55,491.00
             2677.55,491.00 2647.95,442.00 2647.95,442.00
             2647.95,442.00 2635.95,422.00 2635.95,422.00
             2634.38,419.48 2630.61,413.79 2630.26,411.00
             2629.72,406.69 2637.04,398.15 2640.00,395.00 Z
           M 1158.00,407.00
           C 1158.00,407.00 1168.30,424.00 1168.30,424.00
             1168.30,424.00 1171.17,431.00 1171.17,431.00
             1171.17,431.00 1166.42,440.00 1166.42,440.00
             1166.42,440.00 1152.14,460.00 1152.14,460.00
             1152.14,460.00 1098.00,536.00 1098.00,536.00
             1094.33,532.05 1089.40,523.86 1086.77,519.00
             1085.60,516.84 1083.53,513.47 1083.70,511.00
             1083.88,508.25 1087.09,504.28 1088.71,502.00
             1088.71,502.00 1101.58,484.00 1101.58,484.00
             1101.58,484.00 1138.00,433.00 1138.00,433.00
             1142.77,426.30 1152.21,411.56 1158.00,407.00 Z
           M 891.00,409.00
           C 892.90,411.85 898.70,419.91 898.80,423.00
             898.92,427.16 892.13,434.54 889.00,437.00
             887.30,434.40 882.05,426.64 881.64,424.00
             880.93,419.49 887.73,411.77 891.00,409.00 Z
           M 942.00,410.00
           C 942.00,410.00 962.45,444.00 962.45,444.00
             962.45,444.00 985.30,482.00 985.30,482.00
             987.97,486.84 998.96,502.97 999.23,507.00
             999.52,511.42 992.32,519.39 989.00,522.00
             989.00,522.00 979.55,506.00 979.55,506.00
             979.55,506.00 949.95,457.00 949.95,457.00
             949.95,457.00 937.95,437.00 937.95,437.00
             936.38,434.48 932.61,428.79 932.26,426.00
             931.72,421.69 939.04,413.15 942.00,410.00 Z
           M 2115.00,418.00
           C 2115.00,418.00 2122.80,432.00 2122.80,432.00
             2122.80,432.00 2118.71,440.00 2118.71,440.00
             2118.71,440.00 2104.00,459.00 2104.00,459.00
             2104.00,459.00 2096.61,445.00 2096.61,445.00
             2096.61,445.00 2101.00,436.00 2101.00,436.00
             2101.00,436.00 2115.00,418.00 2115.00,418.00 Z
           M 1266.00,420.00
           C 1266.00,420.00 1296.01,471.00 1296.01,471.00
             1298.29,474.89 1306.65,486.16 1306.17,490.00
             1305.84,492.60 1301.77,497.72 1300.14,500.00
             1297.37,503.87 1288.61,515.27 1287.51,519.00
             1286.91,521.04 1287.00,523.86 1287.00,526.00
             1286.98,536.81 1290.12,553.22 1279.00,559.00
             1279.00,559.00 1265.45,536.00 1265.45,536.00
             1265.45,536.00 1244.00,500.00 1244.00,500.00
             1244.00,500.00 1233.31,482.00 1233.31,482.00
             1231.81,479.67 1228.81,475.73 1228.69,473.00
             1228.53,469.31 1235.28,461.22 1237.58,458.00
             1243.30,450.00 1260.01,424.99 1266.00,420.00 Z
           M 1710.00,430.00
           C 1712.14,433.21 1718.29,441.28 1717.73,445.00
             1717.40,447.28 1714.39,451.03 1713.00,453.00
             1709.74,450.23 1708.77,448.61 1706.58,445.00
             1702.34,437.99 1703.81,435.24 1710.00,430.00 Z
           M 2562.00,431.00
           C 2564.15,434.22 2569.94,442.26 2569.81,446.00
             2569.70,448.96 2565.89,453.56 2564.14,456.00
             2564.14,456.00 2550.00,476.00 2550.00,476.00
             2550.00,476.00 2548.00,476.00 2548.00,476.00
             2545.89,472.83 2540.65,465.73 2540.81,462.00
             2540.94,459.00 2544.64,454.49 2546.42,452.00
             2546.42,452.00 2562.00,431.00 2562.00,431.00 Z
           M 2157.00,432.00
           C 2157.00,432.00 2197.42,499.00 2197.42,499.00
             2197.42,499.00 2206.81,515.00 2206.81,515.00
             2209.64,519.62 2211.96,521.41 2211.00,527.00
             2211.00,527.00 2192.13,496.00 2192.13,496.00
             2192.13,496.00 2168.13,456.00 2168.13,456.00
             2165.76,451.87 2156.09,437.96 2156.16,434.23
             2156.20,432.68 2156.68,432.67 2157.00,432.00 Z
           M 2613.00,434.00
           C 2613.00,434.00 2649.68,495.00 2649.68,495.00
             2649.68,495.00 2663.42,518.00 2663.42,518.00
             2664.98,520.49 2669.29,526.55 2669.87,529.00
             2670.93,533.49 2664.55,540.40 2662.00,544.00
             2662.00,544.00 2660.00,544.00 2660.00,544.00
             2660.00,544.00 2642.45,515.00 2642.45,515.00
             2642.45,515.00 2622.32,481.00 2622.32,481.00
             2622.32,481.00 2610.32,461.00 2610.32,461.00
             2608.90,458.73 2603.79,451.04 2603.36,449.00
             2602.38,444.44 2609.65,436.64 2613.00,434.00 Z
           M 2934.00,439.00
           C 2935.90,441.85 2941.70,449.91 2941.80,453.00
             2941.91,456.64 2934.66,465.31 2932.00,468.00
             2930.26,465.39 2924.91,457.62 2924.29,455.00
             2923.17,450.24 2930.56,441.91 2934.00,439.00 Z
           M 396.00,442.00
           C 396.00,442.00 432.68,503.00 432.68,503.00
             435.22,507.08 443.42,518.64 442.91,523.00
             442.66,525.18 441.14,527.20 440.00,529.00
             435.59,525.11 426.02,507.97 422.69,502.00
             422.69,502.00 400.31,465.00 400.31,465.00
             393.03,451.95 387.85,449.01 396.00,442.00 Z
           M 864.00,446.00
           C 866.15,449.22 871.94,457.26 871.81,461.00
             871.69,464.16 866.65,470.28 864.71,473.00
             864.71,473.00 845.42,500.00 845.42,500.00
             845.42,500.00 754.00,628.00 754.00,628.00
             751.23,625.43 745.35,617.78 745.20,614.00
             745.08,610.76 749.40,605.65 751.29,603.00
             751.29,603.00 769.14,578.00 769.14,578.00
             769.14,578.00 831.29,491.00 831.29,491.00
             831.29,491.00 864.00,446.00 864.00,446.00 Z
           M 614.00,447.00
           C 615.85,450.07 621.31,457.83 621.31,461.00
             621.31,464.62 614.57,472.80 612.29,476.00
             612.29,476.00 586.00,513.00 586.00,513.00
             586.00,513.00 584.00,513.00 584.00,513.00
             584.00,513.00 576.82,499.00 576.82,499.00
             576.82,499.00 586.00,484.00 586.00,484.00
             586.00,484.00 612.00,447.00 612.00,447.00
             612.00,447.00 614.00,447.00 614.00,447.00 Z
           M 915.00,449.00
           C 915.00,449.00 951.68,510.00 951.68,510.00
             951.68,510.00 965.42,533.00 965.42,533.00
             966.98,535.49 971.29,541.55 971.87,544.00
             972.93,548.49 966.55,555.40 964.00,559.00
             964.00,559.00 962.00,559.00 962.00,559.00
             962.00,559.00 944.45,530.00 944.45,530.00
             944.45,530.00 924.32,496.00 924.32,496.00
             924.32,496.00 912.32,476.00 912.32,476.00
             910.90,473.73 905.79,466.04 905.36,464.00
             904.38,459.44 911.65,451.64 915.00,449.00 Z
           M 1188.00,456.00
           C 1188.00,456.00 1195.08,471.00 1195.08,471.00
             1195.08,471.00 1189.42,481.00 1189.42,481.00
             1189.42,481.00 1174.42,502.00 1174.42,502.00
             1174.42,502.00 1141.58,548.00 1141.58,548.00
             1141.58,548.00 1122.00,576.00 1122.00,576.00
             1119.31,573.11 1112.35,563.89 1113.20,560.00
             1113.69,557.77 1118.06,552.12 1119.58,550.00
             1119.58,550.00 1133.14,531.00 1133.14,531.00
             1133.14,531.00 1168.86,481.00 1168.86,481.00
             1173.62,474.36 1182.31,460.74 1188.00,456.00 Z
           M 2139.00,458.00
           C 2139.00,458.00 2174.45,517.00 2174.45,517.00
             2174.45,517.00 2192.39,547.00 2192.39,547.00
             2194.80,552.73 2187.45,559.38 2184.54,564.00
             2182.41,567.39 2180.23,570.26 2184.00,573.00
             2184.00,573.00 2179.00,581.00 2179.00,581.00
             2179.00,581.00 2177.00,581.00 2177.00,581.00
             2177.00,581.00 2156.80,547.00 2156.80,547.00
             2156.80,547.00 2133.77,509.00 2133.77,509.00
             2133.77,509.00 2124.06,493.00 2124.06,493.00
             2124.06,493.00 2120.51,484.00 2120.51,484.00
             2120.51,484.00 2125.42,475.00 2125.42,475.00
             2125.42,475.00 2139.00,458.00 2139.00,458.00 Z
           M 522.00,460.00
           C 523.90,462.85 529.70,470.91 529.80,474.00
             529.91,477.64 520.47,489.33 518.00,493.00
             515.24,490.57 508.97,481.70 509.23,478.00
             509.49,474.26 518.94,462.59 522.00,460.00 Z
           M 1687.00,462.00
           C 1688.95,465.48 1694.32,473.28 1694.20,477.00
             1694.08,480.74 1686.84,489.62 1684.42,493.00
             1684.42,493.00 1659.00,529.00 1659.00,529.00
             1655.89,526.36 1649.40,518.26 1649.97,514.00
             1650.38,511.03 1657.48,501.93 1659.58,499.00
             1665.00,491.42 1681.61,466.84 1687.00,462.00 Z
           M 1734.00,470.00
           C 1734.00,470.00 1756.31,507.00 1756.31,507.00
             1756.31,507.00 1763.45,521.00 1763.45,521.00
             1763.45,521.00 1759.00,530.00 1759.00,530.00
             1753.77,525.56 1751.47,519.83 1748.13,514.00
             1748.13,514.00 1735.55,493.00 1735.55,493.00
             1733.77,490.00 1728.04,482.02 1727.92,479.00
             1727.78,475.21 1731.32,472.11 1734.00,470.00 Z
           M 1834.00,470.00
           C 1835.77,473.63 1841.49,481.72 1841.45,485.00
             1841.41,488.63 1834.72,496.78 1832.42,500.00
             1832.42,500.00 1806.00,537.00 1806.00,537.00
             1806.00,537.00 1804.00,537.00 1804.00,537.00
             1804.00,537.00 1797.25,522.00 1797.25,522.00
             1797.25,522.00 1806.86,507.00 1806.86,507.00
             1806.86,507.00 1834.00,470.00 1834.00,470.00 Z
           M 2586.00,471.00
           C 2586.00,471.00 2607.60,507.00 2607.60,507.00
             2607.60,507.00 2629.30,543.00 2629.30,543.00
             2629.30,543.00 2639.80,560.00 2639.80,560.00
             2639.80,560.00 2643.19,568.00 2643.19,568.00
             2643.19,568.00 2637.71,578.00 2637.71,578.00
             2637.71,578.00 2623.00,599.00 2623.00,599.00
             2617.54,594.36 2611.94,582.67 2607.81,576.00
             2607.81,576.00 2587.55,542.00 2587.55,542.00
             2587.55,542.00 2577.77,526.00 2577.77,526.00
             2577.77,526.00 2568.68,511.00 2568.68,511.00
             2567.26,508.71 2564.67,504.71 2564.69,502.00
             2564.71,498.87 2568.33,494.53 2570.14,492.00
             2574.12,486.45 2581.47,475.19 2586.00,471.00 Z
           M 375.00,472.00
           C 375.00,472.00 400.55,515.00 400.55,515.00
             400.55,515.00 423.00,552.00 423.00,552.00
             423.00,552.00 408.00,574.00 408.00,574.00
             408.00,574.00 406.00,574.00 406.00,574.00
             406.00,574.00 394.55,555.00 394.55,555.00
             394.55,555.00 371.13,516.00 371.13,516.00
             368.64,511.66 359.05,498.07 359.19,494.00
             359.29,491.36 361.92,488.12 363.42,486.00
             363.42,486.00 373.00,472.00 373.00,472.00
             373.00,472.00 375.00,472.00 375.00,472.00 Z
           M 2907.00,477.00
           C 2909.61,480.92 2915.44,488.11 2914.06,493.00
             2913.35,495.52 2909.37,500.67 2907.71,503.00
             2907.71,503.00 2893.42,523.00 2893.42,523.00
             2893.42,523.00 2858.42,572.00 2858.42,572.00
             2853.78,578.49 2845.61,591.33 2840.00,596.00
             2837.62,592.04 2831.66,584.58 2832.94,580.00
             2833.65,577.49 2837.63,572.33 2839.29,570.00
             2839.29,570.00 2853.58,550.00 2853.58,550.00
             2853.58,550.00 2888.58,501.00 2888.58,501.00
             2893.22,494.51 2901.39,481.67 2907.00,477.00 Z
           M 318.00,478.00
           C 319.90,480.85 325.70,488.91 325.80,492.00
             325.91,495.62 317.03,506.57 314.58,510.00
             314.58,510.00 282.00,556.00 282.00,556.00
             277.00,550.70 276.56,548.23 269.00,546.00
             269.00,546.00 298.29,504.00 298.29,504.00
             298.29,504.00 318.00,478.00 318.00,478.00 Z
           M 2740.00,480.00
           C 2742.16,483.24 2748.40,491.31 2748.05,495.00
             2747.77,497.99 2741.95,505.24 2740.00,508.00
             2740.00,508.00 2738.00,508.00 2738.00,508.00
             2736.31,504.99 2731.20,497.84 2730.92,495.00
             2730.51,490.86 2737.18,483.00 2740.00,480.00 Z
           M 1042.00,495.00
           C 1044.16,498.24 1050.40,506.31 1050.05,510.00
             1049.77,512.99 1043.95,520.24 1042.00,523.00
             1042.00,523.00 1040.00,523.00 1040.00,523.00
             1038.31,519.99 1033.20,512.84 1032.92,510.00
             1032.51,505.86 1039.18,498.00 1042.00,495.00 Z
           M 492.00,502.00
           C 492.00,502.00 501.00,516.00 501.00,516.00
             501.00,516.00 486.00,538.00 486.00,538.00
             486.00,538.00 484.00,538.00 484.00,538.00
             484.00,538.00 476.73,525.00 476.73,525.00
             476.73,525.00 480.14,517.00 480.14,517.00
             480.14,517.00 492.00,502.00 492.00,502.00 Z
           M 1711.00,502.00
           C 1711.00,502.00 1731.60,537.00 1731.60,537.00
             1733.54,540.25 1739.71,549.03 1740.22,552.00
             1740.98,556.40 1735.47,562.53 1733.00,566.00
             1733.00,566.00 1714.42,592.00 1714.42,592.00
             1711.10,596.65 1708.18,602.31 1703.00,605.00
             1703.00,605.00 1682.19,570.00 1682.19,570.00
             1680.24,566.82 1673.99,558.17 1673.77,555.00
             1673.51,551.29 1680.28,543.22 1682.58,540.00
             1688.30,532.00 1705.01,506.99 1711.00,502.00 Z
           M 2266.00,504.00
           C 2267.91,506.87 2271.73,511.42 2270.93,515.00
             2269.64,520.79 2255.33,532.15 2262.00,537.00
             2262.00,537.00 2257.00,545.00 2257.00,545.00
             2257.00,545.00 2255.00,545.00 2255.00,545.00
             2255.00,545.00 2247.91,531.00 2247.91,531.00
             2247.91,531.00 2252.58,522.00 2252.58,522.00
             2252.58,522.00 2266.00,504.00 2266.00,504.00 Z
           M 2714.00,518.00
           C 2715.79,520.74 2720.75,528.07 2721.13,531.00
             2721.73,535.58 2714.36,544.15 2711.00,547.00
             2709.00,543.93 2703.46,535.47 2703.70,532.00
             2703.90,528.96 2710.05,521.12 2712.00,518.00
             2712.00,518.00 2714.00,518.00 2714.00,518.00 Z
           M 1016.00,533.00
           C 1017.79,535.74 1022.75,543.07 1023.13,546.00
             1023.73,550.58 1016.36,559.15 1013.00,562.00
             1011.00,558.93 1005.46,550.47 1005.70,547.00
             1005.90,543.96 1012.05,536.12 1014.00,533.00
             1014.00,533.00 1016.00,533.00 1016.00,533.00 Z
           M 1066.00,535.00
           C 1066.00,535.00 1081.00,559.00 1081.00,559.00
             1081.00,559.00 1044.00,612.00 1044.00,612.00
             1040.16,607.88 1034.95,599.11 1032.23,594.00
             1030.97,591.61 1029.15,588.80 1029.69,586.00
             1030.29,582.94 1040.53,569.47 1043.00,566.00
             1046.74,560.74 1050.15,553.16 1057.00,552.00
             1056.14,545.40 1061.37,539.28 1066.00,535.00 Z
           M 1336.00,537.00
           C 1337.34,539.52 1340.51,544.30 1340.43,547.00
             1340.32,550.50 1332.89,559.77 1330.58,563.00
             1330.58,563.00 1305.00,600.00 1305.00,600.00
             1301.53,596.74 1299.36,593.86 1301.43,589.00
             1301.43,589.00 1320.65,562.00 1320.65,562.00
             1320.65,562.00 1336.00,537.00 1336.00,537.00 Z
           M 1780.00,546.00
           C 1784.01,554.32 1793.33,562.59 1781.00,569.00
             1774.83,559.52 1770.06,554.91 1780.00,546.00 Z
           M 460.00,548.00
           C 466.20,559.09 470.10,561.29 463.00,569.00
             454.37,554.62 453.05,555.46 458.00,548.00
             458.00,548.00 460.00,548.00 460.00,548.00 Z
           M 2230.00,555.00
           C 2233.99,559.28 2238.57,564.91 2238.00,571.00
             2234.50,567.72 2228.99,559.93 2230.00,555.00 Z
           M 438.00,577.00
           C 438.00,577.00 445.31,592.00 445.31,592.00
             445.31,592.00 441.42,600.00 441.42,600.00
             441.42,600.00 430.00,614.00 430.00,614.00
             427.88,610.82 422.71,603.69 422.66,600.00
             422.63,597.04 424.95,594.30 426.58,592.00
             429.99,587.18 433.93,581.12 438.00,577.00 Z" />
  <path id="Flag lines"
        fill="#f4dd0e" stroke="#f6fabe" stroke-width="3"
        d="M 850.00,17.00
           C 850.00,17.00 851.00,67.00 851.00,67.00
             851.00,67.00 861.00,67.00 861.00,67.00
             861.00,67.00 860.00,16.00 860.00,16.00
             860.00,16.00 850.00,17.00 850.00,17.00 Z
           M 920.00,30.00
           C 920.00,30.00 910.00,39.04 910.00,39.04
             910.00,39.04 883.00,65.00 883.00,65.00
             884.80,66.89 888.26,70.82 891.00,70.80
             893.86,70.79 898.03,65.96 900.00,64.00
             900.00,64.00 919.00,46.00 919.00,46.00
             920.74,44.26 925.10,40.27 925.66,38.00
             926.55,34.45 922.41,31.75 920.00,30.00 Z
           M 821.00,80.00
           C 821.00,80.00 829.00,74.00 829.00,74.00
             827.25,68.72 823.63,64.49 820.42,60.00
             820.42,60.00 804.71,38.01 804.71,38.01
             802.38,34.87 800.32,31.71 796.06,34.20
             794.99,34.83 793.71,35.96 793.32,37.18
             792.36,40.21 797.80,46.52 799.58,49.00
             799.58,49.00 821.00,80.00 821.00,80.00 Z
           M 903.00,92.00
           C 903.00,92.00 909.00,100.00 909.00,100.00
             909.00,100.00 951.00,70.00 951.00,70.00
             950.05,67.63 947.74,62.47 944.76,62.23
             941.93,62.00 935.33,67.54 932.83,69.37
             932.83,69.37 903.00,92.00 903.00,92.00 Z
           M 759.00,73.00
           C 759.00,73.00 796.00,110.00 796.00,110.00
             796.00,110.00 801.80,102.00 801.80,102.00
             801.80,102.00 795.00,93.00 795.00,93.00
             795.00,93.00 775.00,73.58 775.00,73.58
             775.00,73.58 767.00,68.20 767.00,68.20
             767.00,68.20 759.00,73.00 759.00,73.00 Z" />
  <path id="flag"
        fill="#f4dd0e" stroke="#f6fabe" stroke-width="3"
        d="M 829.50,176.68
           C 829.50,176.68 829.50,94.50 829.50,94.50
             829.50,94.50 836.17,94.50 836.17,94.50
             836.17,94.50 836.17,97.83 836.17,97.83
             836.17,97.83 891.76,97.83 891.76,97.83
             891.76,97.83 881.76,117.83 881.76,117.83
             881.76,117.83 891.77,137.84 891.77,137.84
             891.77,137.84 836.17,137.84 836.17,137.84
             836.17,137.84 836.17,176.68 836.17,176.68
             836.17,176.68 839.50,176.68 839.50,176.68
             839.50,176.68 839.50,183.34 839.50,183.34
             839.50,183.34 826.17,183.34 826.17,183.34
             826.17,183.34 826.17,176.68 826.17,176.68
             826.17,176.68 829.50,176.68 829.50,176.68 Z
           M 839.17,131.67
           C 839.17,131.67 881.61,131.67 881.61,131.67
             881.61,131.67 874.94,118.33 874.94,118.33
             874.94,118.33 881.61,105.00 881.61,105.00
             881.61,105.00 839.17,105.00 839.17,105.00
             839.17,105.00 839.17,131.67 839.17,131.67 Z" />
</svg>
